<svg id="svg" version="1.1" xmlns="http://www.w3.org/2000/svg" xmlns:xlink="http://www.w3.org/1999/xlink" width="400" height="400" viewBox="0, 0, 400,400"><g id="svgg"><path id="path0" d="M196.200 11.200 C 196.064 11.420,195.345 11.600,194.603 11.600 C 192.998 11.600,187.907 12.631,186.905 13.158 C 186.517 13.362,184.760 14.208,183.000 15.036 C 181.240 15.865,179.243 16.961,178.562 17.472 C 177.881 17.982,177.218 18.400,177.087 18.400 C 176.957 18.400,176.344 18.855,175.725 19.411 C 175.106 19.967,173.655 21.252,172.500 22.266 C 171.345 23.280,170.400 24.342,170.400 24.626 C 170.400 24.910,169.950 25.496,169.400 25.929 C 168.850 26.361,168.400 26.852,168.400 27.020 C 168.400 27.187,167.982 27.881,167.472 28.562 C 166.661 29.643,164.107 34.690,163.202 37.000 C 162.551 38.660,161.990 41.181,161.741 43.562 C 161.599 44.916,161.330 46.120,161.142 46.236 C 160.695 46.512,160.696 53.489,161.144 53.765 C 161.333 53.882,161.611 55.108,161.762 56.489 C 162.007 58.729,162.402 60.419,163.418 63.572 C 164.744 67.689,171.921 78.400,173.353 78.400 C 173.611 78.400,174.113 78.740,174.469 79.155 C 176.196 81.172,182.491 85.148,184.900 85.743 L 186.000 86.015 186.000 98.408 L 186.000 110.800 136.824 110.800 C 104.471 110.800,87.563 110.937,87.400 111.200 C 87.264 111.420,86.553 111.600,85.821 111.600 C 83.818 111.600,78.204 112.741,76.925 113.408 C 76.306 113.731,75.571 113.996,75.291 113.998 C 74.833 114.000,70.075 116.223,67.000 117.872 C 62.629 120.216,53.205 129.604,51.751 133.063 C 51.459 133.758,51.080 134.388,50.910 134.463 C 50.539 134.627,48.001 139.627,47.997 140.200 C 47.996 140.420,47.725 141.117,47.396 141.749 C 46.624 143.228,45.600 147.180,45.600 148.678 C 45.600 149.317,45.375 150.065,45.100 150.339 C 44.725 150.714,44.569 154.178,44.476 164.174 L 44.352 177.508 32.276 177.725 C 20.405 177.937,17.135 178.255,14.917 179.413 C 14.302 179.733,13.512 179.996,13.160 179.998 C 12.808 179.999,11.728 180.537,10.760 181.193 C 9.792 181.849,8.820 182.389,8.600 182.394 C 8.070 182.406,3.325 186.567,1.470 188.648 L 0.000 190.297 -0.000 245.946 L -0.000 301.596 3.364 304.998 C 5.214 306.869,7.005 308.400,7.344 308.400 C 7.683 308.400,8.104 308.625,8.280 308.900 C 8.684 309.531,13.403 311.875,15.000 312.238 C 15.660 312.388,16.380 312.642,16.600 312.803 C 17.617 313.547,24.124 314.000,33.784 314.000 L 44.335 314.000 44.468 327.500 C 44.560 336.962,44.742 341.239,45.073 341.800 C 45.334 342.240,45.754 343.770,46.008 345.200 C 46.519 348.079,46.857 348.966,49.442 354.200 C 51.813 359.003,52.710 360.464,54.712 362.789 C 55.640 363.867,56.400 364.848,56.400 364.969 C 56.400 365.655,64.284 372.219,66.785 373.616 C 71.946 376.499,73.819 377.370,76.200 377.997 C 77.300 378.287,78.392 378.671,78.627 378.851 C 80.615 380.370,82.968 380.400,200.000 380.400 C 317.032 380.400,319.385 380.370,321.373 378.851 C 321.608 378.671,322.700 378.285,323.800 377.992 C 325.732 377.478,327.918 376.560,330.000 375.388 C 330.550 375.079,331.630 374.510,332.400 374.124 C 333.170 373.738,334.520 372.886,335.400 372.232 C 338.009 370.290,343.600 365.339,343.600 364.969 C 343.600 364.848,344.360 363.867,345.288 362.789 C 347.290 360.464,348.187 359.003,350.558 354.200 C 353.143 348.966,353.481 348.079,353.992 345.200 C 354.246 343.770,354.666 342.240,354.927 341.800 C 355.258 341.239,355.440 336.962,355.532 327.500 L 355.665 314.000 366.216 314.000 C 375.876 314.000,382.383 313.547,383.400 312.803 C 383.620 312.642,384.340 312.388,385.000 312.238 C 386.597 311.875,391.316 309.531,391.720 308.900 C 391.896 308.625,392.317 308.400,392.656 308.400 C 392.995 308.400,394.786 306.869,396.636 304.998 L 400.000 301.596 400.000 245.972 L 400.000 190.348 398.300 188.368 C 396.566 186.348,391.980 182.406,391.349 182.393 C 391.157 182.389,390.208 181.849,389.240 181.193 C 388.272 180.537,387.192 179.999,386.840 179.998 C 386.488 179.996,385.698 179.733,385.083 179.413 C 382.865 178.255,379.595 177.937,367.724 177.725 L 355.648 177.508 355.524 164.174 C 355.431 154.178,355.275 150.714,354.900 150.339 C 354.625 150.065,354.400 149.317,354.400 148.678 C 354.400 147.180,353.376 143.228,352.604 141.749 C 352.275 141.117,352.004 140.420,352.003 140.200 C 351.999 139.627,349.461 134.627,349.090 134.463 C 348.920 134.388,348.541 133.758,348.249 133.063 C 346.806 129.630,337.854 120.679,333.184 118.000 C 330.565 116.498,325.342 114.006,324.800 114.001 C 324.470 113.998,323.694 113.731,323.075 113.408 C 321.796 112.741,316.182 111.600,314.179 111.600 C 313.447 111.600,312.736 111.420,312.600 111.200 C 312.437 110.937,295.529 110.800,263.176 110.800 L 214.000 110.800 214.000 98.408 L 214.000 86.015 215.100 85.743 C 217.509 85.148,223.804 81.172,225.531 79.155 C 225.887 78.740,226.389 78.400,226.647 78.400 C 227.657 78.400,232.834 71.370,234.749 67.398 C 237.291 62.126,237.846 60.393,238.259 56.438 C 238.401 55.084,238.670 53.880,238.858 53.764 C 239.046 53.648,239.200 51.954,239.200 50.000 C 239.200 48.046,239.046 46.352,238.858 46.236 C 238.670 46.120,238.401 44.916,238.259 43.562 C 238.010 41.181,237.449 38.660,236.798 37.000 C 235.893 34.690,233.339 29.643,232.528 28.562 C 232.018 27.881,231.600 27.187,231.600 27.020 C 231.600 26.852,231.150 26.361,230.600 25.929 C 230.050 25.496,229.600 24.923,229.600 24.656 C 229.600 24.044,225.932 20.400,225.315 20.400 C 225.064 20.400,224.504 19.950,224.071 19.400 C 223.639 18.850,223.148 18.400,222.980 18.400 C 222.813 18.400,222.119 17.982,221.438 17.472 C 220.757 16.961,218.760 15.865,217.000 15.036 C 215.240 14.208,213.483 13.362,213.095 13.158 C 212.093 12.631,207.002 11.600,205.397 11.600 C 204.655 11.600,203.936 11.420,203.800 11.200 C 203.664 10.980,201.954 10.800,200.000 10.800 C 198.046 10.800,196.336 10.980,196.200 11.200 M205.350 40.781 C 214.984 46.341,211.137 60.582,200.000 60.582 C 196.018 60.582,190.400 57.384,190.400 55.116 C 190.400 54.810,190.175 54.335,189.900 54.060 C 189.575 53.735,189.400 52.315,189.400 50.000 C 189.400 47.685,189.575 46.265,189.900 45.940 C 190.175 45.665,190.400 45.190,190.400 44.884 C 190.400 43.528,194.699 40.246,197.388 39.549 C 199.637 38.967,203.146 39.510,205.350 40.781 M312.440 139.608 C 314.717 140.040,318.051 141.584,319.426 142.843 C 319.880 143.259,320.425 143.600,320.638 143.600 C 321.019 143.600,323.600 146.149,323.600 146.525 C 323.600 146.632,324.230 147.656,325.000 148.800 C 325.770 149.944,326.406 151.267,326.414 151.740 C 326.422 152.213,326.686 153.050,327.000 153.600 C 327.655 154.745,327.911 336.693,327.259 337.420 C 327.071 337.629,326.683 338.674,326.395 339.743 C 325.458 343.223,320.719 348.656,317.290 350.181 C 316.471 350.545,315.260 351.149,314.600 351.522 C 313.480 352.155,305.875 352.200,200.000 352.200 L 86.600 352.200 85.006 351.300 C 84.129 350.805,83.229 350.400,83.006 350.400 C 81.107 350.399,74.770 343.395,73.778 340.200 C 73.437 339.100,72.987 337.887,72.779 337.505 C 72.093 336.247,72.311 154.805,73.000 153.600 C 73.314 153.050,73.578 152.213,73.586 151.740 C 73.594 151.267,74.230 149.944,75.000 148.800 C 75.770 147.656,76.400 146.632,76.400 146.525 C 76.400 146.149,78.981 143.600,79.362 143.600 C 79.575 143.600,80.120 143.259,80.574 142.843 C 81.852 141.672,85.292 140.016,87.240 139.633 C 89.832 139.124,309.760 139.099,312.440 139.608 M145.654 178.056 C 143.814 178.249,141.744 178.658,141.054 178.965 C 140.364 179.272,138.932 179.804,137.871 180.147 C 135.970 180.762,130.904 184.051,130.280 185.075 C 130.104 185.364,129.733 185.600,129.455 185.600 C 128.921 185.600,127.406 187.125,126.274 188.800 C 123.539 192.849,122.689 194.274,122.139 195.734 C 121.795 196.650,121.279 197.940,120.994 198.600 C 118.568 204.213,119.392 216.093,122.616 222.000 C 122.917 222.550,123.638 223.883,124.220 224.963 C 125.480 227.302,130.747 232.670,133.000 233.911 C 137.553 236.419,140.555 237.625,143.275 238.039 C 144.884 238.284,146.513 238.646,146.895 238.842 C 147.277 239.039,148.674 239.200,150.000 239.200 C 151.326 239.200,152.723 239.039,153.105 238.842 C 153.487 238.646,155.116 238.284,156.725 238.039 C 159.445 237.625,162.447 236.419,167.000 233.911 C 169.267 232.662,174.529 227.290,175.765 224.963 C 176.338 223.883,176.964 222.730,177.155 222.400 C 180.554 216.538,181.500 204.372,179.006 198.600 C 178.721 197.940,178.205 196.650,177.861 195.734 C 177.311 194.274,176.461 192.849,173.726 188.800 C 172.594 187.125,171.079 185.600,170.545 185.600 C 170.267 185.600,169.896 185.362,169.720 185.071 C 169.128 184.092,163.889 180.713,162.036 180.115 C 161.026 179.790,159.656 179.281,158.990 178.986 C 157.995 178.544,150.149 177.469,149.258 177.653 C 149.116 177.682,147.494 177.864,145.654 178.056 M245.654 178.056 C 243.814 178.249,241.744 178.658,241.054 178.965 C 240.364 179.272,238.932 179.804,237.871 180.147 C 235.970 180.762,230.904 184.051,230.280 185.075 C 230.104 185.364,229.733 185.600,229.455 185.600 C 228.921 185.600,227.406 187.125,226.274 188.800 C 223.539 192.849,222.689 194.274,222.139 195.734 C 221.795 196.650,221.279 197.940,220.994 198.600 C 218.568 204.213,219.392 216.093,222.616 222.000 C 222.917 222.550,223.638 223.883,224.220 224.963 C 225.480 227.302,230.747 232.670,233.000 233.911 C 237.553 236.419,240.555 237.625,243.275 238.039 C 244.884 238.284,246.513 238.646,246.895 238.842 C 247.277 239.039,248.674 239.200,250.000 239.200 C 251.326 239.200,252.723 239.039,253.105 238.842 C 253.487 238.646,255.116 238.284,256.725 238.039 C 259.445 237.625,262.447 236.419,267.000 233.911 C 269.267 232.662,274.529 227.290,275.765 224.963 C 276.338 223.883,276.964 222.730,277.155 222.400 C 280.554 216.538,281.500 204.372,279.006 198.600 C 278.721 197.940,278.205 196.650,277.861 195.734 C 277.311 194.274,276.461 192.849,273.726 188.800 C 272.594 187.125,271.079 185.600,270.545 185.600 C 270.267 185.600,269.896 185.362,269.720 185.071 C 269.128 184.092,263.889 180.713,262.036 180.115 C 261.026 179.790,259.656 179.281,258.990 178.986 C 257.995 178.544,250.149 177.469,249.258 177.653 C 249.116 177.682,247.494 177.864,245.654 178.056 M44.400 245.825 L 44.400 286.050 34.164 285.925 C 23.958 285.800,23.926 285.797,23.164 284.856 C 22.154 283.608,21.971 208.399,22.975 207.076 C 23.900 205.855,25.459 205.670,35.100 205.634 L 44.400 205.600 44.400 245.825 M375.148 205.985 C 377.730 206.726,377.573 204.161,377.587 245.856 C 377.600 282.729,377.576 283.941,376.836 284.856 C 376.074 285.797,376.042 285.800,365.836 285.925 L 355.600 286.050 355.600 245.825 L 355.600 205.600 364.703 205.600 C 369.709 205.600,374.409 205.773,375.148 205.985 M151.077 206.246 C 153.392 206.867,152.476 210.400,150.000 210.400 C 148.158 210.400,147.398 209.432,147.800 207.601 C 148.101 206.229,149.247 205.755,151.077 206.246 M251.077 206.246 C 253.392 206.867,252.476 210.400,250.000 210.400 C 248.158 210.400,247.398 209.432,247.800 207.601 C 248.101 206.229,249.247 205.755,251.077 206.246 M155.800 276.347 C 143.400 278.572,140.345 295.752,151.235 302.016 C 153.292 303.199,158.067 305.464,159.200 305.793 C 159.750 305.953,160.560 306.302,161.000 306.568 C 161.440 306.835,162.880 307.381,164.200 307.782 C 165.520 308.182,166.785 308.654,167.011 308.830 C 167.237 309.006,168.767 309.442,170.411 309.799 C 172.055 310.156,173.760 310.611,174.200 310.811 C 175.267 311.296,181.358 312.400,182.964 312.400 C 183.666 312.400,184.411 312.568,184.620 312.772 C 186.074 314.197,212.485 314.251,215.800 312.836 C 216.240 312.648,218.534 312.205,220.899 311.851 C 223.263 311.498,225.513 311.034,225.899 310.821 C 226.284 310.608,227.945 310.145,229.589 309.792 C 231.233 309.439,232.763 309.009,232.989 308.836 C 233.215 308.663,234.390 308.214,235.600 307.838 C 236.810 307.462,238.563 306.805,239.496 306.377 C 240.428 305.950,241.355 305.600,241.556 305.600 C 241.863 305.600,244.986 304.038,249.200 301.777 C 256.207 298.017,257.547 286.422,251.681 280.305 C 248.095 276.565,240.864 275.038,236.400 277.077 C 235.410 277.529,233.928 278.115,233.106 278.379 C 232.284 278.643,231.517 279.011,231.401 279.199 C 231.285 279.386,230.248 279.846,229.095 280.222 C 227.943 280.598,226.820 281.034,226.600 281.190 C 226.380 281.347,225.030 281.792,223.600 282.180 C 222.170 282.569,220.820 283.028,220.600 283.201 C 220.380 283.374,218.220 283.821,215.800 284.193 C 213.380 284.566,210.968 285.080,210.439 285.335 C 209.111 285.978,190.893 285.979,189.561 285.337 C 189.032 285.082,186.720 284.580,184.422 284.221 C 182.124 283.862,180.054 283.425,179.822 283.250 C 179.590 283.075,178.140 282.607,176.600 282.209 C 175.060 281.811,173.620 281.356,173.400 281.196 C 173.180 281.036,172.057 280.598,170.905 280.222 C 169.752 279.846,168.715 279.386,168.599 279.199 C 168.483 279.011,167.716 278.643,166.894 278.379 C 166.072 278.115,164.674 277.575,163.787 277.179 C 161.900 276.337,158.077 275.939,155.800 276.347 " stroke="none" fill="#040404" fill-rule="evenodd"></path><path id="path1" d="" stroke="none" fill="#080404" fill-rule="evenodd"></path><path id="path2" d="" stroke="none" fill="#080404" fill-rule="evenodd"></path><path id="path3" d="" stroke="none" fill="#080404" fill-rule="evenodd"></path><path id="path4" d="" stroke="none" fill="#080404" fill-rule="evenodd"></path></g></svg>