<svg id="svg" version="1.1" xmlns="http://www.w3.org/2000/svg" xmlns:xlink="http://www.w3.org/1999/xlink" width="400" height="400" viewBox="0, 0, 400,400"><g id="svgg"><path id="path0" d="M193.800 16.400 C 193.664 16.620,192.843 16.800,191.976 16.800 C 191.109 16.800,190.400 16.980,190.400 17.200 C 190.400 17.420,189.860 17.600,189.200 17.600 C 188.540 17.600,188.000 17.780,188.000 18.000 C 188.000 18.220,187.561 18.400,187.024 18.400 C 186.487 18.400,185.936 18.580,185.800 18.800 C 185.664 19.020,185.203 19.200,184.776 19.200 C 184.349 19.200,184.000 19.380,184.000 19.600 C 184.000 19.820,183.764 20.000,183.475 20.000 C 183.187 20.000,182.564 20.360,182.092 20.800 C 181.620 21.240,181.028 21.600,180.777 21.600 C 180.526 21.600,179.817 22.140,179.200 22.800 C 178.583 23.460,177.967 24.000,177.829 24.000 C 177.503 24.000,174.000 27.503,174.000 27.829 C 174.000 27.967,173.460 28.583,172.800 29.200 C 172.140 29.817,171.600 30.526,171.600 30.777 C 171.600 31.028,171.240 31.620,170.800 32.092 C 170.360 32.564,170.000 33.187,170.000 33.475 C 170.000 33.764,169.820 34.000,169.600 34.000 C 169.380 34.000,169.200 34.349,169.200 34.776 C 169.200 35.203,169.020 35.664,168.800 35.800 C 168.580 35.936,168.400 36.487,168.400 37.024 C 168.400 37.561,168.220 38.000,168.000 38.000 C 167.780 38.000,167.600 38.540,167.600 39.200 C 167.600 39.860,167.420 40.400,167.200 40.400 C 166.980 40.400,166.800 41.109,166.800 41.976 C 166.800 42.843,166.620 43.664,166.400 43.800 C 166.161 43.948,166.000 46.537,166.000 50.224 C 166.000 54.075,166.151 56.400,166.400 56.400 C 166.620 56.400,166.800 57.120,166.800 58.000 C 166.800 58.880,166.980 59.600,167.200 59.600 C 167.420 59.600,167.600 60.140,167.600 60.800 C 167.600 61.460,167.780 62.000,168.000 62.000 C 168.220 62.000,168.400 62.355,168.400 62.789 C 168.400 63.223,168.858 64.348,169.418 65.289 C 169.977 66.230,170.538 67.315,170.664 67.700 C 170.790 68.085,171.052 68.400,171.247 68.400 C 171.441 68.400,171.600 68.638,171.600 68.928 C 171.600 69.218,172.679 70.613,173.998 72.028 C 175.317 73.443,176.397 74.735,176.398 74.900 C 176.399 75.065,176.598 75.200,176.840 75.200 C 177.081 75.200,177.756 75.695,178.340 76.300 C 178.923 76.905,179.895 77.655,180.500 77.968 C 181.105 78.280,181.600 78.685,181.600 78.868 C 181.600 79.050,181.960 79.200,182.400 79.200 C 182.840 79.200,183.200 79.380,183.200 79.600 C 183.200 79.820,183.560 80.000,184.000 80.000 C 184.440 80.000,184.800 80.180,184.800 80.400 C 184.800 80.620,185.160 80.800,185.600 80.800 C 186.040 80.800,186.400 80.980,186.400 81.200 C 186.400 81.420,186.760 81.600,187.200 81.600 C 187.640 81.600,188.000 81.769,188.000 81.976 C 188.000 82.183,188.675 82.408,189.500 82.476 L 191.000 82.600 191.104 99.300 L 191.209 116.000 138.004 116.000 C 102.801 116.000,84.800 116.135,84.800 116.400 C 84.800 116.620,83.900 116.800,82.800 116.800 C 81.700 116.800,80.800 116.980,80.800 117.200 C 80.800 117.420,80.170 117.600,79.400 117.600 C 78.630 117.600,78.000 117.780,78.000 118.000 C 78.000 118.220,77.651 118.400,77.224 118.400 C 76.797 118.400,76.336 118.580,76.200 118.800 C 76.064 119.020,75.513 119.200,74.976 119.200 C 74.439 119.200,74.000 119.380,74.000 119.600 C 74.000 119.820,73.640 120.000,73.200 120.000 C 72.760 120.000,72.400 120.180,72.400 120.400 C 72.400 120.620,72.080 120.800,71.688 120.800 C 71.297 120.800,70.717 121.160,70.400 121.600 C 70.083 122.040,69.503 122.400,69.112 122.400 C 68.720 122.400,68.400 122.580,68.400 122.800 C 68.400 123.020,68.106 123.200,67.747 123.200 C 67.388 123.200,66.803 123.523,66.447 123.918 C 66.091 124.314,64.720 125.463,63.400 126.473 C 62.080 127.483,60.460 129.064,59.800 129.987 C 59.140 130.910,58.195 132.092,57.700 132.614 C 57.205 133.136,56.800 133.802,56.800 134.094 C 56.800 134.385,56.440 134.883,56.000 135.200 C 55.560 135.517,55.200 136.097,55.200 136.488 C 55.200 136.880,55.020 137.200,54.800 137.200 C 54.580 137.200,54.400 137.560,54.400 138.000 C 54.400 138.440,54.220 138.800,54.000 138.800 C 53.780 138.800,53.600 139.160,53.600 139.600 C 53.600 140.040,53.420 140.400,53.200 140.400 C 52.980 140.400,52.800 140.760,52.800 141.200 C 52.800 141.640,52.620 142.000,52.400 142.000 C 52.180 142.000,52.000 142.450,52.000 143.000 C 52.000 143.550,51.820 144.000,51.600 144.000 C 51.380 144.000,51.200 144.540,51.200 145.200 C 51.200 145.860,51.020 146.400,50.800 146.400 C 50.580 146.400,50.400 147.109,50.400 147.976 C 50.400 148.843,50.220 149.664,50.000 149.800 C 49.744 149.958,49.600 155.871,49.600 166.224 L 49.600 182.400 35.424 182.400 C 26.404 182.400,21.157 182.546,21.000 182.800 C 20.864 183.020,20.043 183.200,19.176 183.200 C 18.309 183.200,17.600 183.380,17.600 183.600 C 17.600 183.820,17.060 184.000,16.400 184.000 C 15.740 184.000,15.200 184.180,15.200 184.400 C 15.200 184.620,14.966 184.800,14.680 184.800 C 13.944 184.800,12.007 185.741,12.003 186.100 C 12.001 186.265,11.680 186.400,11.288 186.400 C 10.897 186.400,10.317 186.760,10.000 187.200 C 9.683 187.640,9.279 188.000,9.103 188.000 C 8.744 188.000,4.400 192.256,4.400 192.608 C 4.400 192.732,4.040 193.220,3.600 193.692 C 3.160 194.164,2.800 194.787,2.800 195.075 C 2.800 195.364,2.620 195.600,2.400 195.600 C 2.180 195.600,2.000 195.960,2.000 196.400 C 2.000 196.840,1.820 197.200,1.600 197.200 C 1.380 197.200,1.200 197.524,1.200 197.920 C 1.200 198.316,0.975 198.865,0.700 199.140 C -0.033 199.873,-0.033 292.056,0.700 292.300 C 0.975 292.392,1.200 292.812,1.200 293.233 C 1.200 293.655,1.380 294.000,1.600 294.000 C 1.820 294.000,2.000 294.234,2.000 294.520 C 2.000 295.256,2.941 297.193,3.300 297.197 C 3.465 297.199,3.600 297.481,3.600 297.825 C 3.600 298.982,10.120 304.941,12.850 306.279 C 17.422 308.519,17.791 308.560,34.300 308.694 L 49.600 308.818 49.600 325.209 C 49.600 335.870,49.740 341.600,50.000 341.600 C 50.220 341.600,50.400 342.320,50.400 343.200 C 50.400 344.080,50.580 344.800,50.800 344.800 C 51.020 344.800,51.200 345.329,51.200 345.976 C 51.200 346.623,51.380 347.264,51.600 347.400 C 51.820 347.536,52.000 348.087,52.000 348.624 C 52.000 349.161,52.180 349.600,52.400 349.600 C 52.620 349.600,52.800 349.960,52.800 350.400 C 52.800 350.840,52.980 351.200,53.200 351.200 C 53.420 351.200,53.600 351.434,53.600 351.720 C 53.600 352.456,54.541 354.393,54.900 354.397 C 55.065 354.399,55.200 354.760,55.200 355.200 C 55.200 355.640,55.380 356.000,55.600 356.000 C 55.820 356.000,56.000 356.198,56.000 356.440 C 56.000 356.681,56.540 357.383,57.200 358.000 C 57.860 358.617,58.400 359.326,58.400 359.577 C 58.400 360.345,64.508 366.800,65.234 366.800 C 65.439 366.800,66.172 367.340,66.863 368.000 C 67.554 368.660,68.362 369.200,68.659 369.200 C 68.957 369.200,69.200 369.380,69.200 369.600 C 69.200 369.820,69.560 370.000,70.000 370.000 C 70.440 370.000,70.800 370.180,70.800 370.400 C 70.800 370.620,71.160 370.800,71.600 370.800 C 72.040 370.800,72.400 370.980,72.400 371.200 C 72.400 371.420,72.760 371.600,73.200 371.600 C 73.640 371.600,74.000 371.780,74.000 372.000 C 74.000 372.220,74.360 372.400,74.800 372.400 C 75.240 372.400,75.600 372.580,75.600 372.800 C 75.600 373.020,75.962 373.200,76.405 373.200 C 76.848 373.200,77.523 373.356,77.905 373.546 C 80.915 375.047,76.962 374.996,198.600 375.113 C 322.979 375.234,320.238 375.269,322.180 373.539 C 322.389 373.352,322.974 373.200,323.480 373.200 C 323.986 373.200,324.400 373.020,324.400 372.800 C 324.400 372.580,324.760 372.400,325.200 372.400 C 325.640 372.400,326.000 372.220,326.000 372.000 C 326.000 371.780,326.234 371.600,326.520 371.600 C 327.256 371.600,329.193 370.659,329.197 370.300 C 329.199 370.135,329.560 370.000,330.000 370.000 C 330.440 370.000,330.800 369.820,330.800 369.600 C 330.800 369.380,331.043 369.200,331.341 369.200 C 331.638 369.200,332.446 368.660,333.137 368.000 C 333.828 367.340,334.583 366.800,334.816 366.800 C 335.048 366.800,336.445 365.548,337.919 364.019 C 341.263 360.549,341.600 360.143,341.600 359.577 C 341.600 359.326,342.140 358.617,342.800 358.000 C 343.460 357.383,344.000 356.681,344.000 356.440 C 344.000 356.198,344.180 356.000,344.400 356.000 C 344.620 356.000,344.800 355.640,344.800 355.200 C 344.800 354.760,344.935 354.399,345.100 354.397 C 345.459 354.393,346.400 352.456,346.400 351.720 C 346.400 351.434,346.580 351.200,346.800 351.200 C 347.020 351.200,347.200 350.840,347.200 350.400 C 347.200 349.960,347.380 349.600,347.600 349.600 C 347.820 349.600,348.000 349.161,348.000 348.624 C 348.000 348.087,348.180 347.536,348.400 347.400 C 348.620 347.264,348.800 346.623,348.800 345.976 C 348.800 345.329,348.980 344.800,349.200 344.800 C 349.420 344.800,349.600 344.080,349.600 343.200 C 349.600 342.320,349.780 341.600,350.000 341.600 C 350.260 341.600,350.400 335.870,350.400 325.209 L 350.400 308.818 365.700 308.694 C 376.756 308.605,381.499 308.426,382.800 308.049 C 385.079 307.389,389.600 305.190,389.600 304.740 C 389.600 304.553,389.783 304.400,390.006 304.400 C 390.636 304.400,396.400 298.486,396.400 297.840 C 396.400 297.525,396.535 297.207,396.700 297.133 C 397.120 296.947,398.800 293.637,398.800 292.996 C 398.800 292.705,399.025 292.392,399.300 292.300 C 399.696 292.168,399.800 282.528,399.800 245.887 C 399.800 209.423,399.694 199.534,399.300 199.140 C 399.025 198.865,398.800 198.316,398.800 197.920 C 398.800 197.524,398.620 197.200,398.400 197.200 C 398.180 197.200,398.000 196.840,398.000 196.400 C 398.000 195.960,397.820 195.600,397.600 195.600 C 397.380 195.600,397.200 195.364,397.200 195.075 C 397.200 194.787,396.840 194.164,396.400 193.692 C 395.960 193.220,395.600 192.732,395.600 192.608 C 395.600 192.256,391.256 188.000,390.897 188.000 C 390.721 188.000,390.317 187.640,390.000 187.200 C 389.683 186.760,389.103 186.400,388.712 186.400 C 388.320 186.400,387.999 186.265,387.997 186.100 C 387.993 185.741,386.056 184.800,385.320 184.800 C 385.034 184.800,384.800 184.620,384.800 184.400 C 384.800 184.180,384.260 184.000,383.600 184.000 C 382.940 184.000,382.400 183.820,382.400 183.600 C 382.400 183.380,381.691 183.200,380.824 183.200 C 379.957 183.200,379.136 183.020,379.000 182.800 C 378.843 182.546,373.596 182.400,364.576 182.400 L 350.400 182.400 350.400 166.224 C 350.400 155.871,350.256 149.958,350.000 149.800 C 349.780 149.664,349.600 148.843,349.600 147.976 C 349.600 147.109,349.420 146.400,349.200 146.400 C 348.980 146.400,348.800 145.860,348.800 145.200 C 348.800 144.540,348.620 144.000,348.400 144.000 C 348.180 144.000,348.000 143.550,348.000 143.000 C 348.000 142.450,347.820 142.000,347.600 142.000 C 347.380 142.000,347.200 141.640,347.200 141.200 C 347.200 140.760,347.020 140.400,346.800 140.400 C 346.580 140.400,346.400 140.040,346.400 139.600 C 346.400 139.160,346.220 138.800,346.000 138.800 C 345.780 138.800,345.600 138.440,345.600 138.000 C 345.600 137.560,345.420 137.200,345.200 137.200 C 344.980 137.200,344.800 136.880,344.800 136.488 C 344.800 136.097,344.440 135.517,344.000 135.200 C 343.560 134.883,343.200 134.369,343.200 134.059 C 343.200 133.748,342.883 133.203,342.497 132.847 C 342.110 132.491,341.255 131.402,340.597 130.426 C 339.938 129.450,338.335 127.830,337.034 126.826 C 335.732 125.822,334.255 124.595,333.752 124.100 C 333.248 123.605,332.558 123.200,332.218 123.200 C 331.878 123.200,331.600 123.020,331.600 122.800 C 331.600 122.580,331.364 122.400,331.075 122.400 C 330.787 122.400,330.164 122.040,329.692 121.600 C 329.220 121.160,328.556 120.800,328.217 120.800 C 327.878 120.800,327.600 120.620,327.600 120.400 C 327.600 120.180,327.240 120.000,326.800 120.000 C 326.360 120.000,326.000 119.820,326.000 119.600 C 326.000 119.380,325.550 119.200,325.000 119.200 C 324.450 119.200,324.000 119.020,324.000 118.800 C 324.000 118.580,323.550 118.400,323.000 118.400 C 322.450 118.400,322.000 118.220,322.000 118.000 C 322.000 117.780,321.370 117.600,320.600 117.600 C 319.830 117.600,319.200 117.420,319.200 117.200 C 319.200 116.980,318.300 116.800,317.200 116.800 C 316.100 116.800,315.200 116.620,315.200 116.400 C 315.200 116.135,297.199 116.000,261.996 116.000 L 208.791 116.000 208.896 99.300 L 209.000 82.600 210.500 82.476 C 211.325 82.408,212.000 82.183,212.000 81.976 C 212.000 81.769,212.360 81.600,212.800 81.600 C 213.240 81.600,213.600 81.420,213.600 81.200 C 213.600 80.980,213.960 80.800,214.400 80.800 C 214.840 80.800,215.200 80.620,215.200 80.400 C 215.200 80.180,215.560 80.000,216.000 80.000 C 216.440 80.000,216.800 79.820,216.800 79.600 C 216.800 79.380,217.160 79.200,217.600 79.200 C 218.040 79.200,218.400 79.050,218.400 78.868 C 218.400 78.685,218.894 78.280,219.497 77.968 C 220.100 77.655,221.147 76.860,221.822 76.200 C 222.498 75.540,223.534 74.642,224.125 74.205 C 224.716 73.768,225.200 73.273,225.200 73.106 C 225.200 72.938,225.920 72.059,226.800 71.152 C 227.680 70.245,228.400 69.255,228.400 68.952 C 228.400 68.648,228.559 68.400,228.753 68.400 C 228.948 68.400,229.210 68.085,229.336 67.700 C 229.462 67.315,230.023 66.230,230.582 65.289 C 231.142 64.348,231.600 63.223,231.600 62.789 C 231.600 62.355,231.780 62.000,232.000 62.000 C 232.220 62.000,232.400 61.460,232.400 60.800 C 232.400 60.140,232.580 59.600,232.800 59.600 C 233.020 59.600,233.200 58.880,233.200 58.000 C 233.200 57.120,233.380 56.400,233.600 56.400 C 233.849 56.400,234.000 54.067,234.000 50.200 C 234.000 46.333,233.849 44.000,233.600 44.000 C 233.380 44.000,233.200 43.190,233.200 42.200 C 233.200 41.210,233.020 40.400,232.800 40.400 C 232.580 40.400,232.400 39.860,232.400 39.200 C 232.400 38.540,232.220 38.000,232.000 38.000 C 231.780 38.000,231.600 37.561,231.600 37.024 C 231.600 36.487,231.420 35.936,231.200 35.800 C 230.980 35.664,230.800 35.203,230.800 34.776 C 230.800 34.349,230.620 34.000,230.400 34.000 C 230.180 34.000,230.000 33.730,230.000 33.400 C 230.000 33.070,229.820 32.800,229.600 32.800 C 229.380 32.800,229.200 32.530,229.200 32.200 C 229.200 31.870,229.020 31.600,228.800 31.600 C 228.580 31.600,228.400 31.312,228.400 30.960 C 228.400 30.609,227.860 29.817,227.200 29.200 C 226.540 28.583,226.000 27.963,226.000 27.821 C 226.000 27.466,222.557 24.000,222.205 24.000 C 222.049 24.000,221.417 23.460,220.800 22.800 C 220.183 22.140,219.391 21.600,219.040 21.600 C 218.688 21.600,218.400 21.420,218.400 21.200 C 218.400 20.980,218.130 20.800,217.800 20.800 C 217.470 20.800,217.200 20.620,217.200 20.400 C 217.200 20.180,216.930 20.000,216.600 20.000 C 216.270 20.000,216.000 19.820,216.000 19.600 C 216.000 19.380,215.651 19.200,215.224 19.200 C 214.797 19.200,214.336 19.020,214.200 18.800 C 214.064 18.580,213.513 18.400,212.976 18.400 C 212.439 18.400,212.000 18.220,212.000 18.000 C 212.000 17.780,211.460 17.600,210.800 17.600 C 210.140 17.600,209.600 17.420,209.600 17.200 C 209.600 16.980,208.790 16.800,207.800 16.800 C 206.810 16.800,206.000 16.620,206.000 16.400 C 206.000 16.151,203.741 16.000,200.024 16.000 C 196.471 16.000,193.947 16.162,193.800 16.400 M202.600 34.400 C 202.736 34.620,203.377 34.800,204.024 34.800 C 204.671 34.800,205.200 34.980,205.200 35.200 C 205.200 35.420,205.560 35.600,206.000 35.600 C 206.440 35.600,206.800 35.780,206.800 36.000 C 206.800 36.220,207.068 36.400,207.395 36.400 C 208.678 36.400,213.600 41.322,213.600 42.605 C 213.600 42.932,213.780 43.200,214.000 43.200 C 214.220 43.200,214.400 43.560,214.400 44.000 C 214.400 44.440,214.580 44.800,214.800 44.800 C 215.020 44.800,215.200 45.419,215.200 46.176 C 215.200 46.933,215.380 47.664,215.600 47.800 C 215.820 47.936,216.000 48.926,216.000 50.000 C 216.000 51.074,215.820 52.064,215.600 52.200 C 215.380 52.336,215.200 53.067,215.200 53.824 C 215.200 54.581,215.020 55.200,214.800 55.200 C 214.580 55.200,214.400 55.560,214.400 56.000 C 214.400 56.440,214.220 56.800,214.000 56.800 C 213.780 56.800,213.600 57.068,213.600 57.395 C 213.600 58.678,208.678 63.600,207.395 63.600 C 207.068 63.600,206.800 63.780,206.800 64.000 C 206.800 64.220,206.440 64.400,206.000 64.400 C 205.560 64.400,205.200 64.580,205.200 64.800 C 205.200 65.020,204.581 65.200,203.824 65.200 C 203.067 65.200,202.336 65.380,202.200 65.600 C 202.064 65.820,201.074 66.000,200.000 66.000 C 198.926 66.000,197.936 65.820,197.800 65.600 C 197.664 65.380,196.933 65.200,196.176 65.200 C 195.419 65.200,194.800 65.020,194.800 64.800 C 194.800 64.580,194.440 64.400,194.000 64.400 C 193.560 64.400,193.200 64.220,193.200 64.000 C 193.200 63.780,192.932 63.600,192.605 63.600 C 191.322 63.600,186.400 58.678,186.400 57.395 C 186.400 57.068,186.220 56.800,186.000 56.800 C 185.780 56.800,185.600 56.440,185.600 56.000 C 185.600 55.560,185.420 55.200,185.200 55.200 C 184.980 55.200,184.800 54.671,184.800 54.024 C 184.800 53.377,184.620 52.736,184.400 52.600 C 184.180 52.464,184.000 51.384,184.000 50.200 C 184.000 49.016,184.180 47.936,184.400 47.800 C 184.620 47.664,184.800 46.933,184.800 46.176 C 184.800 45.419,184.980 44.800,185.200 44.800 C 185.420 44.800,185.600 44.528,185.600 44.195 C 185.600 41.913,191.913 35.600,194.195 35.600 C 194.528 35.600,194.800 35.420,194.800 35.200 C 194.800 34.980,195.329 34.800,195.976 34.800 C 196.623 34.800,197.264 34.620,197.400 34.400 C 197.536 34.180,198.706 34.000,200.000 34.000 C 201.294 34.000,202.464 34.180,202.600 34.400 M311.400 134.400 C 311.536 134.620,312.269 134.800,313.029 134.800 C 313.789 134.800,314.723 134.959,315.105 135.153 C 315.487 135.348,316.340 135.729,317.000 136.000 C 319.385 136.980,321.016 137.898,322.155 138.900 C 322.593 139.285,323.104 139.600,323.290 139.600 C 323.705 139.600,327.200 143.153,327.200 143.574 C 327.200 143.740,327.650 144.399,328.200 145.038 C 328.749 145.677,329.199 146.425,329.200 146.700 C 329.200 146.975,329.380 147.200,329.600 147.200 C 329.820 147.200,330.000 147.560,330.000 148.000 C 330.000 148.440,330.180 148.800,330.400 148.800 C 330.620 148.800,330.800 149.340,330.800 150.000 C 330.800 150.660,330.980 151.200,331.200 151.200 C 331.420 151.200,331.600 151.740,331.600 152.400 C 331.600 153.060,331.780 153.600,332.000 153.600 C 332.266 153.600,332.400 184.600,332.400 245.800 C 332.400 307.000,332.266 338.000,332.000 338.000 C 331.780 338.000,331.600 338.529,331.600 339.176 C 331.600 339.823,331.420 340.464,331.200 340.600 C 330.980 340.736,330.800 341.287,330.800 341.824 C 330.800 342.361,330.654 342.800,330.475 342.800 C 330.296 342.800,329.902 343.430,329.600 344.200 C 329.298 344.970,328.904 345.600,328.725 345.600 C 328.546 345.600,328.398 345.825,328.395 346.100 C 328.385 347.079,323.197 352.800,322.320 352.800 C 322.021 352.800,321.517 353.160,321.200 353.600 C 320.883 354.040,320.303 354.400,319.912 354.400 C 319.520 354.400,319.200 354.580,319.200 354.800 C 319.200 355.020,318.840 355.200,318.400 355.200 C 317.960 355.200,317.600 355.380,317.600 355.600 C 317.600 355.820,317.150 356.000,316.600 356.000 C 316.050 356.000,315.600 356.180,315.600 356.400 C 315.600 356.620,314.970 356.800,314.200 356.800 C 313.430 356.800,312.800 356.980,312.800 357.200 C 312.800 357.466,274.933 357.600,200.000 357.600 C 125.067 357.600,87.200 357.466,87.200 357.200 C 87.200 356.980,86.570 356.800,85.800 356.800 C 85.030 356.800,84.400 356.620,84.400 356.400 C 84.400 356.180,83.950 356.000,83.400 356.000 C 82.850 356.000,82.400 355.820,82.400 355.600 C 82.400 355.380,82.040 355.200,81.600 355.200 C 81.160 355.200,80.800 355.020,80.800 354.800 C 80.800 354.580,80.480 354.400,80.088 354.400 C 79.697 354.400,79.117 354.040,78.800 353.600 C 78.483 353.160,77.979 352.800,77.680 352.800 C 76.803 352.800,71.615 347.079,71.605 346.100 C 71.602 345.825,71.454 345.600,71.275 345.600 C 71.096 345.600,70.702 344.970,70.400 344.200 C 70.098 343.430,69.748 342.800,69.623 342.800 C 69.315 342.800,68.400 339.812,68.400 338.806 C 68.400 338.363,68.220 338.000,68.000 338.000 C 67.734 338.000,67.600 307.000,67.600 245.800 C 67.600 184.600,67.734 153.600,68.000 153.600 C 68.220 153.600,68.400 153.060,68.400 152.400 C 68.400 151.740,68.580 151.200,68.800 151.200 C 69.020 151.200,69.200 150.660,69.200 150.000 C 69.200 149.340,69.380 148.800,69.600 148.800 C 69.820 148.800,70.000 148.440,70.000 148.000 C 70.000 147.560,70.180 147.200,70.400 147.200 C 70.620 147.200,70.800 146.975,70.800 146.700 C 70.801 146.425,71.251 145.677,71.800 145.038 C 72.350 144.399,72.800 143.740,72.800 143.574 C 72.800 143.153,76.295 139.600,76.710 139.600 C 76.896 139.600,77.407 139.285,77.845 138.900 C 78.984 137.898,80.615 136.980,83.000 136.000 C 83.660 135.729,84.513 135.348,84.895 135.153 C 85.277 134.959,86.211 134.800,86.971 134.800 C 87.731 134.800,88.464 134.620,88.600 134.400 C 88.764 134.135,126.330 134.000,200.000 134.000 C 273.670 134.000,311.236 134.135,311.400 134.400 M146.200 182.800 C 146.064 183.020,145.254 183.200,144.400 183.200 C 143.546 183.200,142.736 183.380,142.600 183.600 C 142.464 183.820,141.913 184.000,141.376 184.000 C 140.839 184.000,140.400 184.180,140.400 184.400 C 140.400 184.620,140.166 184.800,139.880 184.800 C 139.144 184.800,137.207 185.741,137.203 186.100 C 137.201 186.265,136.880 186.400,136.488 186.400 C 136.097 186.400,135.517 186.760,135.200 187.200 C 134.883 187.640,134.389 188.000,134.103 188.000 C 133.521 188.000,129.200 192.179,129.200 192.742 C 129.200 192.940,128.928 193.328,128.595 193.604 C 127.760 194.297,125.731 198.645,125.232 200.811 C 124.145 205.527,125.080 219.200,126.489 219.200 C 126.660 219.200,126.800 219.560,126.800 220.000 C 126.800 220.440,126.936 220.800,127.102 220.800 C 127.269 220.800,127.650 221.353,127.949 222.029 C 128.611 223.525,135.003 230.000,135.817 230.000 C 136.138 230.000,136.400 230.180,136.400 230.400 C 136.400 230.620,136.760 230.800,137.200 230.800 C 137.640 230.800,138.000 230.980,138.000 231.200 C 138.000 231.420,138.360 231.600,138.800 231.600 C 139.240 231.600,139.600 231.780,139.600 232.000 C 139.600 232.220,140.140 232.400,140.800 232.400 C 141.460 232.400,142.000 232.580,142.000 232.800 C 142.000 233.020,142.540 233.200,143.200 233.200 C 143.860 233.200,144.400 233.380,144.400 233.600 C 144.400 233.848,146.533 234.000,150.000 234.000 C 153.467 234.000,155.600 233.848,155.600 233.600 C 155.600 233.380,156.140 233.200,156.800 233.200 C 157.460 233.200,158.000 233.020,158.000 232.800 C 158.000 232.580,158.540 232.400,159.200 232.400 C 159.860 232.400,160.400 232.220,160.400 232.000 C 160.400 231.780,160.760 231.600,161.200 231.600 C 161.640 231.600,162.000 231.420,162.000 231.200 C 162.000 230.980,162.360 230.800,162.800 230.800 C 163.240 230.800,163.600 230.650,163.600 230.468 C 163.600 230.285,164.095 229.880,164.700 229.568 C 166.231 228.778,171.432 223.428,172.070 221.988 C 172.359 221.334,172.731 220.800,172.898 220.800 C 173.064 220.800,173.200 220.440,173.200 220.000 C 173.200 219.560,173.340 219.200,173.511 219.200 C 175.041 219.200,175.874 205.124,174.624 200.384 C 173.426 195.839,167.903 188.000,165.899 188.000 C 165.612 188.000,165.117 187.640,164.800 187.200 C 164.483 186.760,163.903 186.400,163.512 186.400 C 163.120 186.400,162.799 186.265,162.797 186.100 C 162.793 185.741,160.856 184.800,160.120 184.800 C 159.834 184.800,159.600 184.620,159.600 184.400 C 159.600 184.180,159.161 184.000,158.624 184.000 C 158.087 184.000,157.536 183.820,157.400 183.600 C 157.264 183.380,156.454 183.200,155.600 183.200 C 154.746 183.200,153.936 183.020,153.800 182.800 C 153.664 182.580,151.954 182.400,150.000 182.400 C 148.046 182.400,146.336 182.580,146.200 182.800 M246.200 182.800 C 246.064 183.020,245.254 183.200,244.400 183.200 C 243.546 183.200,242.736 183.380,242.600 183.600 C 242.464 183.820,241.913 184.000,241.376 184.000 C 240.839 184.000,240.400 184.180,240.400 184.400 C 240.400 184.620,240.166 184.800,239.880 184.800 C 239.144 184.800,237.207 185.741,237.203 186.100 C 237.201 186.265,236.880 186.400,236.488 186.400 C 236.097 186.400,235.517 186.760,235.200 187.200 C 234.883 187.640,234.389 188.000,234.103 188.000 C 233.521 188.000,229.200 192.179,229.200 192.742 C 229.200 192.940,228.928 193.328,228.595 193.604 C 227.760 194.297,225.731 198.645,225.232 200.811 C 224.145 205.527,225.080 219.200,226.489 219.200 C 226.660 219.200,226.800 219.560,226.800 220.000 C 226.800 220.440,226.936 220.800,227.102 220.800 C 227.269 220.800,227.650 221.353,227.949 222.029 C 228.611 223.525,235.003 230.000,235.817 230.000 C 236.138 230.000,236.400 230.180,236.400 230.400 C 236.400 230.620,236.760 230.800,237.200 230.800 C 237.640 230.800,238.000 230.980,238.000 231.200 C 238.000 231.420,238.360 231.600,238.800 231.600 C 239.240 231.600,239.600 231.780,239.600 232.000 C 239.600 232.220,240.140 232.400,240.800 232.400 C 241.460 232.400,242.000 232.580,242.000 232.800 C 242.000 233.020,242.540 233.200,243.200 233.200 C 243.860 233.200,244.400 233.380,244.400 233.600 C 244.400 233.848,246.533 234.000,250.000 234.000 C 253.467 234.000,255.600 233.848,255.600 233.600 C 255.600 233.380,256.140 233.200,256.800 233.200 C 257.460 233.200,258.000 233.020,258.000 232.800 C 258.000 232.580,258.540 232.400,259.200 232.400 C 259.860 232.400,260.400 232.220,260.400 232.000 C 260.400 231.780,260.760 231.600,261.200 231.600 C 261.640 231.600,262.000 231.420,262.000 231.200 C 262.000 230.980,262.360 230.800,262.800 230.800 C 263.240 230.800,263.600 230.650,263.600 230.468 C 263.600 230.285,264.095 229.880,264.700 229.568 C 266.231 228.778,271.432 223.428,272.070 221.988 C 272.359 221.334,272.731 220.800,272.898 220.800 C 273.064 220.800,273.200 220.440,273.200 220.000 C 273.200 219.560,273.340 219.200,273.511 219.200 C 275.041 219.200,275.874 205.124,274.624 200.384 C 273.426 195.839,267.903 188.000,265.899 188.000 C 265.612 188.000,265.117 187.640,264.800 187.200 C 264.483 186.760,263.903 186.400,263.512 186.400 C 263.120 186.400,262.799 186.265,262.797 186.100 C 262.793 185.741,260.856 184.800,260.120 184.800 C 259.834 184.800,259.600 184.620,259.600 184.400 C 259.600 184.180,259.161 184.000,258.624 184.000 C 258.087 184.000,257.536 183.820,257.400 183.600 C 257.264 183.380,256.454 183.200,255.600 183.200 C 254.746 183.200,253.936 183.020,253.800 182.800 C 253.664 182.580,251.954 182.400,250.000 182.400 C 248.046 182.400,246.336 182.580,246.200 182.800 M49.600 245.800 L 49.600 291.200 36.600 291.200 C 28.200 291.200,23.600 291.058,23.600 290.800 C 23.600 290.580,23.235 290.400,22.789 290.400 C 21.847 290.400,18.400 287.110,18.400 286.211 C 18.400 285.875,18.220 285.600,18.000 285.600 C 17.736 285.600,17.600 272.067,17.600 245.800 C 17.600 219.533,17.736 206.000,18.000 206.000 C 18.220 206.000,18.400 205.724,18.400 205.387 C 18.400 203.961,22.089 201.200,23.995 201.200 C 24.658 201.200,25.200 201.020,25.200 200.800 C 25.200 200.542,29.533 200.400,37.400 200.400 L 49.600 200.400 49.600 245.800 M374.800 200.800 C 374.800 201.020,375.342 201.200,376.005 201.200 C 377.911 201.200,381.600 203.961,381.600 205.387 C 381.600 205.724,381.780 206.000,382.000 206.000 C 382.264 206.000,382.400 219.533,382.400 245.800 C 382.400 272.067,382.264 285.600,382.000 285.600 C 381.780 285.600,381.600 285.875,381.600 286.211 C 381.600 287.110,378.153 290.400,377.211 290.400 C 376.765 290.400,376.400 290.580,376.400 290.800 C 376.400 291.058,371.800 291.200,363.400 291.200 L 350.400 291.200 350.400 245.800 L 350.400 200.400 362.600 200.400 C 370.467 200.400,374.800 200.542,374.800 200.800 M152.800 201.600 C 152.800 201.820,153.076 202.000,153.413 202.000 C 153.751 202.000,154.651 202.624,155.413 203.387 C 156.176 204.149,156.800 205.049,156.800 205.387 C 156.800 205.724,156.980 206.000,157.200 206.000 C 157.420 206.000,157.600 206.990,157.600 208.200 C 157.600 209.410,157.420 210.400,157.200 210.400 C 156.980 210.400,156.800 210.675,156.800 211.011 C 156.800 212.042,153.340 215.200,152.211 215.200 C 151.655 215.200,151.200 215.380,151.200 215.600 C 151.200 215.820,150.660 216.000,150.000 216.000 C 149.340 216.000,148.800 215.820,148.800 215.600 C 148.800 215.380,148.345 215.200,147.789 215.200 C 146.660 215.200,143.200 212.042,143.200 211.011 C 143.200 210.675,143.020 210.400,142.800 210.400 C 142.580 210.400,142.400 209.410,142.400 208.200 C 142.400 206.990,142.580 206.000,142.800 206.000 C 143.020 206.000,143.200 205.724,143.200 205.387 C 143.200 205.049,143.824 204.149,144.587 203.387 C 145.349 202.624,146.249 202.000,146.587 202.000 C 146.924 202.000,147.200 201.820,147.200 201.600 C 147.200 201.371,148.400 201.200,150.000 201.200 C 151.600 201.200,152.800 201.371,152.800 201.600 M252.800 201.600 C 252.800 201.820,253.076 202.000,253.413 202.000 C 254.209 202.000,256.800 204.591,256.800 205.387 C 256.800 205.724,256.980 206.000,257.200 206.000 C 257.420 206.000,257.600 206.990,257.600 208.200 C 257.600 209.410,257.420 210.400,257.200 210.400 C 256.980 210.400,256.800 210.675,256.800 211.011 C 256.800 212.042,253.340 215.200,252.211 215.200 C 251.655 215.200,251.200 215.380,251.200 215.600 C 251.200 215.820,250.660 216.000,250.000 216.000 C 249.340 216.000,248.800 215.820,248.800 215.600 C 248.800 215.380,248.345 215.200,247.789 215.200 C 246.660 215.200,243.200 212.042,243.200 211.011 C 243.200 210.675,243.020 210.400,242.800 210.400 C 242.580 210.400,242.400 209.410,242.400 208.200 C 242.400 206.990,242.580 206.000,242.800 206.000 C 243.020 206.000,243.200 205.724,243.200 205.387 C 243.200 204.591,245.791 202.000,246.587 202.000 C 246.924 202.000,247.200 201.820,247.200 201.600 C 247.200 201.371,248.400 201.200,250.000 201.200 C 251.600 201.200,252.800 201.371,252.800 201.600 M155.400 281.200 C 155.264 281.420,154.803 281.600,154.376 281.600 C 153.949 281.600,153.600 281.741,153.600 281.914 C 153.600 282.086,153.060 282.546,152.400 282.936 C 151.740 283.326,151.200 283.823,151.200 284.039 C 151.200 284.256,150.840 284.820,150.400 285.292 C 149.515 286.242,149.158 294.000,150.000 294.000 C 150.220 294.000,150.400 294.276,150.400 294.613 C 150.400 295.409,152.991 298.000,153.787 298.000 C 154.124 298.000,154.400 298.180,154.400 298.400 C 154.400 298.620,154.760 298.800,155.200 298.800 C 155.640 298.800,156.000 298.980,156.000 299.200 C 156.000 299.420,156.360 299.600,156.800 299.600 C 157.240 299.600,157.600 299.780,157.600 300.000 C 157.600 300.220,157.872 300.400,158.205 300.400 C 158.538 300.400,159.123 300.559,159.505 300.753 C 159.887 300.948,160.740 301.329,161.400 301.600 C 162.060 301.871,162.913 302.252,163.295 302.447 C 163.677 302.641,164.262 302.800,164.595 302.800 C 164.928 302.800,165.200 302.980,165.200 303.200 C 165.200 303.420,165.740 303.600,166.400 303.600 C 167.060 303.600,167.600 303.780,167.600 304.000 C 167.600 304.220,168.140 304.400,168.800 304.400 C 169.460 304.400,170.000 304.580,170.000 304.800 C 170.000 305.020,170.720 305.200,171.600 305.200 C 172.480 305.200,173.200 305.360,173.200 305.556 C 173.200 305.752,173.785 306.012,174.500 306.134 C 175.215 306.256,176.700 306.551,177.800 306.790 C 178.900 307.029,182.230 307.572,185.200 307.996 C 195.564 309.476,212.364 308.928,222.200 306.790 C 223.300 306.551,224.787 306.256,225.504 306.134 C 226.221 306.012,226.906 305.751,227.027 305.556 C 227.148 305.360,227.867 305.200,228.624 305.200 C 229.381 305.200,230.000 305.020,230.000 304.800 C 230.000 304.580,230.540 304.400,231.200 304.400 C 231.860 304.400,232.400 304.220,232.400 304.000 C 232.400 303.780,232.940 303.600,233.600 303.600 C 234.260 303.600,234.800 303.420,234.800 303.200 C 234.800 302.980,235.149 302.800,235.576 302.800 C 236.003 302.800,236.464 302.620,236.600 302.400 C 236.736 302.180,237.287 302.000,237.824 302.000 C 238.361 302.000,238.800 301.820,238.800 301.600 C 238.800 301.380,239.149 301.200,239.576 301.200 C 240.003 301.200,240.464 301.020,240.600 300.800 C 240.736 300.580,241.197 300.400,241.624 300.400 C 242.051 300.400,242.400 300.220,242.400 300.000 C 242.400 299.780,242.760 299.600,243.200 299.600 C 243.640 299.600,244.000 299.420,244.000 299.200 C 244.000 298.980,244.360 298.800,244.800 298.800 C 245.240 298.800,245.600 298.620,245.600 298.400 C 245.600 298.180,245.876 298.000,246.213 298.000 C 247.009 298.000,249.600 295.409,249.600 294.613 C 249.600 294.276,249.780 294.000,250.000 294.000 C 250.764 294.000,250.495 286.259,249.700 285.354 C 249.315 284.915,248.805 284.206,248.567 283.778 C 248.329 283.350,247.744 282.822,247.267 282.605 C 246.790 282.388,246.400 282.073,246.400 281.905 C 246.400 281.737,246.051 281.600,245.624 281.600 C 245.197 281.600,244.736 281.420,244.600 281.200 C 244.464 280.980,243.103 280.800,241.576 280.800 C 239.992 280.800,238.800 280.972,238.800 281.200 C 238.800 281.420,238.510 281.600,238.154 281.600 C 237.799 281.600,236.764 281.983,235.854 282.450 C 234.945 282.918,233.887 283.458,233.505 283.650 C 233.123 283.843,232.538 284.000,232.205 284.000 C 231.872 284.000,231.600 284.180,231.600 284.400 C 231.600 284.620,231.251 284.800,230.824 284.800 C 230.397 284.800,229.936 284.980,229.800 285.200 C 229.664 285.420,229.113 285.600,228.576 285.600 C 228.039 285.600,227.600 285.780,227.600 286.000 C 227.600 286.220,227.150 286.400,226.600 286.400 C 226.050 286.400,225.600 286.580,225.600 286.800 C 225.600 287.020,225.060 287.200,224.400 287.200 C 223.740 287.200,223.200 287.380,223.200 287.600 C 223.200 287.820,222.480 288.000,221.600 288.000 C 220.720 288.000,220.000 288.180,220.000 288.400 C 220.000 288.620,219.280 288.800,218.400 288.800 C 217.520 288.800,216.800 288.980,216.800 289.200 C 216.800 289.420,215.821 289.600,214.624 289.600 C 213.427 289.600,212.336 289.780,212.200 290.000 C 212.064 290.220,210.433 290.400,208.576 290.400 C 206.592 290.400,205.200 290.565,205.200 290.800 C 205.200 291.046,203.200 291.200,200.000 291.200 C 196.800 291.200,194.800 291.046,194.800 290.800 C 194.800 290.565,193.408 290.400,191.424 290.400 C 189.567 290.400,187.936 290.220,187.800 290.000 C 187.664 289.780,186.573 289.600,185.376 289.600 C 184.179 289.600,183.200 289.420,183.200 289.200 C 183.200 288.980,182.480 288.800,181.600 288.800 C 180.720 288.800,180.000 288.620,180.000 288.400 C 180.000 288.180,179.280 288.000,178.400 288.000 C 177.520 288.000,176.800 287.820,176.800 287.600 C 176.800 287.380,176.260 287.200,175.600 287.200 C 174.940 287.200,174.400 287.020,174.400 286.800 C 174.400 286.580,173.950 286.400,173.400 286.400 C 172.850 286.400,172.400 286.220,172.400 286.000 C 172.400 285.780,171.950 285.600,171.400 285.600 C 170.850 285.600,170.400 285.420,170.400 285.200 C 170.400 284.980,169.950 284.800,169.400 284.800 C 168.850 284.800,168.400 284.620,168.400 284.400 C 168.400 284.180,168.040 284.000,167.600 284.000 C 167.160 284.000,166.800 283.820,166.800 283.600 C 166.800 283.380,166.564 283.200,166.275 283.200 C 165.986 283.200,165.005 282.840,164.094 282.400 C 163.184 281.960,162.160 281.600,161.819 281.600 C 161.479 281.600,161.200 281.420,161.200 281.200 C 161.200 280.972,160.008 280.800,158.424 280.800 C 156.897 280.800,155.536 280.980,155.400 281.200 " stroke="none" fill="#040404" fill-rule="evenodd"></path><path id="path1" d="" stroke="none" fill="#080404" fill-rule="evenodd"></path><path id="path2" d="" stroke="none" fill="#080404" fill-rule="evenodd"></path><path id="path3" d="" stroke="none" fill="#080404" fill-rule="evenodd"></path><path id="path4" d="" stroke="none" fill="#080404" fill-rule="evenodd"></path></g></svg>