<?xml version="1.0" standalone="no"?>
<!DOCTYPE svg PUBLIC "-//W3C//DTD SVG 20010904//EN"
 "http://www.w3.org/TR/2001/REC-SVG-20010904/DTD/svg10.dtd">
<svg version="1.0" xmlns="http://www.w3.org/2000/svg"
 width="512.000000pt" height="512.000000pt" viewBox="0 0 512.000000 512.000000"
 preserveAspectRatio="xMidYMid meet">
<metadata>
Created by potrace 1.14, written by Peter Selinger 2001-2017
</metadata>
<g transform="translate(0.000000,512.000000) scale(0.100000,-0.100000)"
fill="#000000" stroke="none">
<path d="M2465 4895 c-143 -34 -264 -145 -310 -284 -11 -34 -18 -86 -18 -135
0 -112 42 -214 121 -292 45 -44 140 -104 175 -110 4 -1 10 -2 15 -3 9 -1 8
-428 -1 -437 -4 -4 -309 -8 -679 -9 -516 -1 -685 -4 -723 -14 -189 -49 -341
-203 -389 -393 -10 -38 -15 -117 -16 -244 0 -103 -3 -190 -6 -194 -3 -3 -87
-6 -187 -6 -160 -1 -189 -4 -238 -23 -75 -29 -138 -85 -174 -157 l-30 -59 0
-560 0 -560 26 -55 c33 -69 87 -123 158 -157 54 -26 62 -27 249 -28 106 -1
194 -4 197 -7 2 -2 5 -87 5 -189 2 -218 8 -257 62 -366 67 -138 211 -250 363
-282 34 -7 520 -10 1495 -10 1592 -1 1509 -4 1634 61 87 46 187 148 228 234
19 38 35 72 35 77 1 4 6 29 11 55 6 26 11 130 12 232 0 101 3 186 5 189 3 2
87 5 187 6 207 2 246 10 315 62 60 46 68 55 101 123 l27 55 0 560 0 560 -29
58 c-52 103 -141 164 -255 175 -36 4 -130 6 -208 6 l-143 -1 0 176 c-1 244
-11 300 -73 411 -54 96 -185 206 -277 234 -14 4 -41 12 -60 18 -23 7 -274 11
-711 12 -371 2 -679 5 -685 8 -5 4 -9 97 -8 219 0 174 3 214 15 219 136 63
210 124 254 211 109 214 36 455 -176 576 -73 42 -205 59 -294 38z"/>
</g>
</svg>
